<svg id="Layer_1" data-name="Layer 1" xmlns="http://www.w3.org/2000/svg" xmlns:xlink="http://www.w3.org/1999/xlink" viewBox="0 0 762.14 563.91"><defs><style>.cls-1{fill:url(#linear-gradient);}.cls-2{fill:#4c4c4c;}.cls-3{fill:url(#linear-gradient-2);}.cls-4{fill:url(#linear-gradient-3);}.cls-5{fill:url(#linear-gradient-4);}.cls-6{fill:url(#linear-gradient-5);}.cls-7{fill:url(#linear-gradient-6);}.cls-8{fill:url(#linear-gradient-7);}.cls-9{fill:url(#linear-gradient-8);}.cls-10{fill:url(#linear-gradient-9);}.cls-11{fill:url(#linear-gradient-10);}.cls-12{fill:url(#linear-gradient-11);}.cls-13{fill:url(#linear-gradient-12);}</style><linearGradient id="linear-gradient" x1="466.36" y1="104.12" x2="487.86" y2="451.09" gradientUnits="userSpaceOnUse"><stop offset="0" stop-color="#00aa9d"/><stop offset="1" stop-color="#00ace4"/></linearGradient><linearGradient id="linear-gradient-2" x1="112.65" y1="738.99" x2="112.65" y2="766.67" xlink:href="#linear-gradient"/><linearGradient id="linear-gradient-3" x1="187.16" y1="739.29" x2="187.16" y2="766.37" xlink:href="#linear-gradient"/><linearGradient id="linear-gradient-4" x1="257.47" y1="739.29" x2="257.47" y2="766.37" xlink:href="#linear-gradient"/><linearGradient id="linear-gradient-5" x1="316.47" y1="739.29" x2="316.47" y2="766.37" xlink:href="#linear-gradient"/><linearGradient id="linear-gradient-6" x1="381.4" y1="739.29" x2="381.4" y2="766.37" xlink:href="#linear-gradient"/><linearGradient id="linear-gradient-7" x1="452.33" y1="739.29" x2="452.33" y2="766.37" xlink:href="#linear-gradient"/><linearGradient id="linear-gradient-8" x1="571.4" y1="739.29" x2="571.4" y2="766.37" xlink:href="#linear-gradient"/><linearGradient id="linear-gradient-9" x1="641.16" y1="739.29" x2="641.16" y2="766.37" xlink:href="#linear-gradient"/><linearGradient id="linear-gradient-10" x1="709.6" y1="739.29" x2="709.6" y2="766.37" xlink:href="#linear-gradient"/><linearGradient id="linear-gradient-11" x1="782.59" y1="739.29" x2="782.59" y2="766.37" xlink:href="#linear-gradient"/><linearGradient id="linear-gradient-12" x1="852.53" y1="739.29" x2="852.53" y2="766.37" xlink:href="#linear-gradient"/></defs><title>steboh</title><path class="cls-1" d="M373.68,293.89V445.78h273.4L464.81,263.52h30.38q24.68,0,42.72,17.56,18,18,18,43.19L616.23,385l.47-60.76q0-50.79-35.6-85.91-35.6-35.6-85.91-35.6H312.92l60.76,60.76L434,324.27,494.72,385H434.43V354.65Z" transform="translate(-98.93 -202.76)"/><rect class="cls-2" x="261.67" y="371.21" width="111.45" height="15.92"/><polygon class="cls-2" points="261.67 419.04 261.54 419.04 261.54 482.69 275.4 482.69 275.4 482.66 373.11 482.66 373.11 466.74 275.4 466.74 275.4 434.9 373.11 434.9 373.11 418.98 261.67 418.98 261.67 419.04"/><path class="cls-2" d="M599.41,601.84q0-27.87-31.84-27.86H488V685.42h79.61q31.83,0,31.84-27.86T583.49,629.7Q599.41,629.7,599.41,601.84ZM567.57,669.5H503.88V637.66h63.69q15.91,0,15.92,15.92T567.57,669.5Zm0-47.76H503.88V589.9h63.69q15.91,0,15.92,15.92T567.57,621.74Z" transform="translate(-98.93 -202.76)"/><path class="cls-2" d="M671.05,574a55.7,55.7,0,1,0,39.4,16.31A53.67,53.67,0,0,0,671.05,574Zm28.14,83.86a39.79,39.79,0,1,1,11.66-28.14A38.36,38.36,0,0,1,699.19,657.84Z" transform="translate(-98.93 -202.76)"/><polygon class="cls-2" points="659.68 371.21 643.76 371.21 643.76 482.66 659.68 482.66 659.68 434.9 725.86 434.9 725.86 418.98 659.68 418.98 659.68 371.21"/><polygon class="cls-2" points="739.29 371.21 739.29 418.98 739.23 418.98 739.17 434.9 739.29 434.9 739.29 482.66 755.21 482.66 755.21 371.21 739.29 371.21"/><path class="cls-2" d="M217.31,574H137.7q-31.84,0-31.84,31.84t31.84,31.84h47.76q15.93,0,15.93,15.92T185.46,669.5h-79.6v15.92h79.6q31.85,0,31.85-31.84t-31.85-31.84H137.7q-15.91,0-15.92-15.92T137.7,589.9H281v95.52h15.92V589.9h47.76V574H217.31Z" transform="translate(-98.93 -202.76)"/><path class="cls-3" d="M126.36,752.83a15.29,15.29,0,0,1-1,5.52,13,13,0,0,1-2.78,4.39,12.52,12.52,0,0,1-4.33,2.89,15.62,15.62,0,0,1-11.21,0,12.56,12.56,0,0,1-4.34-2.89,12.94,12.94,0,0,1-2.8-4.39,15.86,15.86,0,0,1,0-11,12.68,12.68,0,0,1,7.14-7.29,14.61,14.61,0,0,1,5.59-1,15.11,15.11,0,0,1,3.88.48,13.67,13.67,0,0,1,3.33,1.35,12,12,0,0,1,2.73,2.12,12.57,12.57,0,0,1,2,2.78,13.46,13.46,0,0,1,1.28,3.33A15.53,15.53,0,0,1,126.36,752.83Zm-5.15,0a12.41,12.41,0,0,0-.6-4,8.45,8.45,0,0,0-1.7-3,7.26,7.26,0,0,0-2.69-1.89,10,10,0,0,0-7.13,0,7.29,7.29,0,0,0-2.7,1.89,8.47,8.47,0,0,0-1.71,3,13.63,13.63,0,0,0,0,8,8.47,8.47,0,0,0,1.71,3,7.51,7.51,0,0,0,2.7,1.88,10.1,10.1,0,0,0,7.13,0,7.47,7.47,0,0,0,2.69-1.88,8.45,8.45,0,0,0,1.7-3A12.41,12.41,0,0,0,121.21,752.83Z" transform="translate(-98.93 -202.76)"/><path class="cls-4" d="M198.57,739.29v27.08H196a2.33,2.33,0,0,1-1-.2,2.41,2.41,0,0,1-.77-.66l-14.14-18c.07.82.11,1.58.11,2.28v16.63h-4.44V739.29h2.64a4.22,4.22,0,0,1,.55,0,1.61,1.61,0,0,1,.42.11,1.29,1.29,0,0,1,.34.25,2.73,2.73,0,0,1,.38.42l14.19,18.12c0-.43-.07-.86-.09-1.29s0-.82,0-1.18V739.29Z" transform="translate(-98.93 -202.76)"/><path class="cls-5" d="M265.4,762.21v4.16H249.54V739.29h5v22.92Z" transform="translate(-98.93 -202.76)"/><path class="cls-6" d="M319,766.37h-5.06V739.29H319Z" transform="translate(-98.93 -202.76)"/><path class="cls-7" d="M392.82,739.29v27.08h-2.59a2.28,2.28,0,0,1-1-.2,2.33,2.33,0,0,1-.78-.66l-14.13-18c.07.82.11,1.58.11,2.28v16.63H370V739.29h2.64a4.33,4.33,0,0,1,.55,0,1.61,1.61,0,0,1,.42.11,1.29,1.29,0,0,1,.34.25,2.73,2.73,0,0,1,.38.42l14.19,18.12q-.06-.65-.09-1.29c0-.42,0-.82,0-1.18V739.29Z" transform="translate(-98.93 -202.76)"/><path class="cls-8" d="M448.85,743.3v7.51h9.47v3.88h-9.47v7.65h12v4H443.79V739.29h17.08v4Z" transform="translate(-98.93 -202.76)"/><path class="cls-9" d="M582.09,743.43h-8.17v22.94h-5V743.43h-8.16v-4.14h21.37Z" transform="translate(-98.93 -202.76)"/><path class="cls-10" d="M651.73,766.37h-4.55a2,2,0,0,1-1.87-1l-5.7-8.67a1.84,1.84,0,0,0-.7-.69,2.39,2.39,0,0,0-1.13-.21h-2.15v10.58h-5V739.29h8.25a17.15,17.15,0,0,1,4.73.57,9.1,9.1,0,0,1,3.24,1.6,6.23,6.23,0,0,1,1.87,2.47,8,8,0,0,1,.6,3.15,8.46,8.46,0,0,1-.4,2.59,7.59,7.59,0,0,1-3,4,9.42,9.42,0,0,1-2.54,1.18,4.63,4.63,0,0,1,1.65,1.57Zm-13-14.19a7.68,7.68,0,0,0,2.48-.36,4.71,4.71,0,0,0,1.74-1,3.9,3.9,0,0,0,1-1.49,5,5,0,0,0,.34-1.89,3.84,3.84,0,0,0-1.36-3.17,6.51,6.51,0,0,0-4.15-1.1h-3.21v9Z" transform="translate(-98.93 -202.76)"/><path class="cls-11" d="M722.81,766.37h-3.89a1.67,1.67,0,0,1-1.07-.33,2.07,2.07,0,0,1-.62-.81l-2-5.52H704l-2,5.52a1.76,1.76,0,0,1-.58.78,1.61,1.61,0,0,1-1.07.36h-3.93l10.66-27.08h5.13Zm-8.89-10.22-3.3-9c-.16-.4-.33-.88-.5-1.42s-.35-1.15-.53-1.78c-.16.63-.33,1.23-.5,1.78s-.34,1-.51,1.46l-3.28,9Z" transform="translate(-98.93 -202.76)"/><path class="cls-12" d="M794.61,752.83a14.67,14.67,0,0,1-1,5.47,12.26,12.26,0,0,1-7.12,7.08,15.28,15.28,0,0,1-5.62,1H770.57V739.29h10.31a15.28,15.28,0,0,1,5.62,1,12.72,12.72,0,0,1,4.33,2.79,12.5,12.5,0,0,1,2.79,4.28A14.74,14.74,0,0,1,794.61,752.83Zm-5.17,0a12.41,12.41,0,0,0-.59-4,8.18,8.18,0,0,0-1.7-3,7.27,7.27,0,0,0-2.7-1.88,9.16,9.16,0,0,0-3.57-.66h-5.26v19.06h5.26a9.16,9.16,0,0,0,3.57-.65,7.51,7.51,0,0,0,2.7-1.88,8.31,8.31,0,0,0,1.7-3A12.41,12.41,0,0,0,789.44,752.83Z" transform="translate(-98.93 -202.76)"/><path class="cls-13" d="M849.05,743.3v7.51h9.47v3.88h-9.47v7.65h12v4H844V739.29h17.08v4Z" transform="translate(-98.93 -202.76)"/></svg>